<svg xmlns="http://www.w3.org/2000/svg" xmlns:xlink="http://www.w3.org/1999/xlink" width="793" zoomAndPan="magnify" viewBox="0 0 595.5 842.249979" height="1122" preserveAspectRatio="xMidYMid meet" version="1.0"><defs><clipPath id="b4d3e3d8cc"><path d="M 0.015625 0 L 594.984375 0 L 594.984375 841.5 L 0.015625 841.5 Z M 0.015625 0 " clip-rule="nonzero"/></clipPath><clipPath id="efc8d1aaf1"><path d="M 0.015625 0 L 540.164062 0 L 540.164062 48.828125 L 0.015625 48.828125 Z M 0.015625 0 " clip-rule="nonzero"/></clipPath><clipPath id="0c3fd97a01"><path d="M 52.871094 794.914062 L 594.984375 794.914062 L 594.984375 841.5 L 52.871094 841.5 Z M 52.871094 794.914062 " clip-rule="nonzero"/></clipPath><clipPath id="8a872afb08"><path d="M 0.015625 0 L 594.984375 0 L 594.984375 32.628906 L 0.015625 32.628906 Z M 0.015625 0 " clip-rule="nonzero"/></clipPath><clipPath id="a020277921"><path d="M 0.015625 811.113281 L 594.984375 811.113281 L 594.984375 841.5 L 0.015625 841.5 Z M 0.015625 811.113281 " clip-rule="nonzero"/></clipPath><clipPath id="725089fe29"><path d="M 0.015625 0 L 106.777344 0 L 106.777344 95.613281 L 0.015625 95.613281 Z M 0.015625 0 " clip-rule="nonzero"/></clipPath><clipPath id="05245332dd"><path d="M -81.703125 32.621094 L -49.664062 -30.371094 L 74.640625 -30.371094 L 106.679688 32.621094 L 74.640625 95.613281 L -49.664062 95.613281 Z M -81.703125 32.621094 " clip-rule="nonzero"/></clipPath><clipPath id="a024c8235e"><path d="M 486.253906 748.125 L 594.984375 748.125 L 594.984375 841.5 L 486.253906 841.5 Z M 486.253906 748.125 " clip-rule="nonzero"/></clipPath><clipPath id="0b058967aa"><path d="M 674.734375 811.117188 L 642.695312 874.109375 L 518.390625 874.109375 L 486.351562 811.117188 L 518.390625 748.125 L 642.695312 748.125 Z M 674.734375 811.117188 " clip-rule="nonzero"/></clipPath><clipPath id="948f610bb9"><path d="M 0.015625 0 L 73.71875 0 L 73.71875 75.339844 L 0.015625 75.339844 Z M 0.015625 0 " clip-rule="nonzero"/></clipPath><clipPath id="4ef36169de"><path d="M -64.378906 29.1875 L -40.90625 -16.96875 L 50.171875 -16.96875 L 73.644531 29.1875 L 50.171875 75.339844 L -40.90625 75.339844 Z M -64.378906 29.1875 " clip-rule="nonzero"/></clipPath><clipPath id="a3a7de094e"><path d="M 519.304688 768.398438 L 594.984375 768.398438 L 594.984375 841.5 L 519.304688 841.5 Z M 519.304688 768.398438 " clip-rule="nonzero"/></clipPath><clipPath id="3a4228aef3"><path d="M 657.402344 814.550781 L 633.929688 860.703125 L 542.851562 860.703125 L 519.375 814.550781 L 542.851562 768.398438 L 633.929688 768.398438 Z M 657.402344 814.550781 " clip-rule="nonzero"/></clipPath></defs><g clip-path="url(#b4d3e3d8cc)"><path fill="#ffffff" d="M 0.015625 0 L 594.984375 0 L 594.984375 841.5 L 0.015625 841.5 Z M 0.015625 0 " fill-opacity="1" fill-rule="nonzero"/><path fill="#ffffff" d="M 0.015625 0 L 594.984375 0 L 594.984375 841.5 L 0.015625 841.5 Z M 0.015625 0 " fill-opacity="1" fill-rule="nonzero"/></g><g clip-path="url(#efc8d1aaf1)"><path fill="#ffbd59" d="M 540.164062 -41.511719 L 540.164062 48.828125 L -28.707031 48.828125 L -28.707031 -41.511719 Z M 540.164062 -41.511719 " fill-opacity="1" fill-rule="nonzero"/></g><g clip-path="url(#0c3fd97a01)"><path fill="#ffbd59" d="M 52.871094 885.253906 L 52.871094 794.914062 L 621.738281 794.914062 L 621.738281 885.253906 Z M 52.871094 885.253906 " fill-opacity="1" fill-rule="nonzero"/></g><g clip-path="url(#8a872afb08)"><path fill="#000000" d="M 717.761719 -66.539062 L 717.761719 32.628906 L -5.066406 32.628906 L -5.066406 -66.539062 Z M 717.761719 -66.539062 " fill-opacity="1" fill-rule="nonzero"/></g><g clip-path="url(#a020277921)"><path fill="#000000" d="M -124.734375 910.28125 L -124.734375 811.113281 L 598.089844 811.113281 L 598.089844 910.28125 Z M -124.734375 910.28125 " fill-opacity="1" fill-rule="nonzero"/></g><g clip-path="url(#725089fe29)"><g clip-path="url(#05245332dd)"><path fill="#000000" d="M -81.703125 95.613281 L -81.703125 -30.371094 L 106.777344 -30.371094 L 106.777344 95.613281 Z M -81.703125 95.613281 " fill-opacity="1" fill-rule="nonzero"/></g></g><g clip-path="url(#a024c8235e)"><g clip-path="url(#0b058967aa)"><path fill="#000000" d="M 674.734375 748.125 L 674.734375 874.109375 L 486.253906 874.109375 L 486.253906 748.125 Z M 674.734375 748.125 " fill-opacity="1" fill-rule="nonzero"/></g></g><g clip-path="url(#948f610bb9)"><g clip-path="url(#4ef36169de)"><path fill="#ffbd59" d="M -64.378906 75.339844 L -64.378906 -16.96875 L 73.71875 -16.96875 L 73.71875 75.339844 Z M -64.378906 75.339844 " fill-opacity="1" fill-rule="nonzero"/></g></g><g clip-path="url(#a3a7de094e)"><g clip-path="url(#3a4228aef3)"><path fill="#ffbd59" d="M 657.402344 768.398438 L 657.402344 860.703125 L 519.304688 860.703125 L 519.304688 768.398438 Z M 657.402344 768.398438 " fill-opacity="1" fill-rule="nonzero"/></g></g></svg>